<svg width="32" height="32" viewBox="0 0 32 32" fill="none" xmlns="http://www.w3.org/2000/svg">
<g id="Frame">
<path id="Vector" d="M6.55067 3.544C9.31733 3.184 12.1373 3 15 3C17.8627 3 20.6827 3.18533 23.4493 3.544C26.012 3.87733 27.8373 6.02533 27.9893 8.51333C27.5436 8.36483 27.0816 8.27038 26.6133 8.232C22.8775 7.92188 19.1225 7.92188 15.3867 8.232C12.2427 8.49333 10 11.152 10 14.144V19.8587C9.99874 20.957 10.301 22.0344 10.8735 22.9718C11.4459 23.9092 12.2663 24.6701 13.244 25.1707L9.70667 28.7067C9.56682 28.8463 9.38871 28.9414 9.19485 28.98C9.00098 29.0185 8.80005 28.9987 8.61744 28.923C8.43482 28.8474 8.2787 28.7194 8.16881 28.5551C8.05892 28.3908 8.00017 28.1977 8 28V22.6267C7.51626 22.5752 7.03312 22.5183 6.55067 22.456C3.87333 22.1067 2 19.7773 2 17.1493V8.85067C2 6.224 3.87333 3.892 6.55067 3.544Z" fill="black"/>
<path id="Vector_2" d="M21 10C19.1653 10 17.348 10.076 15.552 10.2253C13.4987 10.396 12 12.1373 12 14.1453V19.8587C12 21.868 13.504 23.6107 15.56 23.7787C17.2173 23.9147 18.8933 23.988 20.584 23.9987L24.2933 27.7067C24.4332 27.8463 24.6113 27.9414 24.8052 27.98C24.999 28.0185 25.1999 27.9987 25.3826 27.9231C25.5652 27.8474 25.7213 27.7194 25.8312 27.5551C25.9411 27.3908 25.9998 27.1977 26 27V23.8133L26.44 23.7787C28.496 23.612 30 21.868 30 19.8587V14.144C30 12.1373 28.5 10.396 26.448 10.224C24.6359 10.0742 22.8183 9.99943 21 10Z" fill="#FF1F1F"/>
<path id="Vector_3" d="M17.0312 16C16.4617 16 16 16.4477 16 17C16 17.5523 16.4617 18 17.0312 18C17.6008 18 18.0625 17.5523 18.0625 17C18.0625 16.4477 17.6008 16 17.0312 16ZM21.5 16C20.9305 16 20.4688 16.4477 20.4688 17C20.4688 17.5523 20.9305 18 21.5 18C22.0695 18 22.5312 17.5523 22.5312 17C22.5312 16.4477 22.0695 16 21.5 16ZM25.9688 16C25.3992 16 24.9375 16.4477 24.9375 17C24.9375 17.5523 25.3992 18 25.9688 18C26.5383 18 27 17.5523 27 17C27 16.4477 26.5383 16 25.9688 16Z" fill="white"/>
</g>
</svg>
